<svg id="Capa_1" enable-background="new 0 0 512 512" height="512" viewBox="0 0 512 512" width="512" xmlns="http://www.w3.org/2000/svg"><g><path d="m408 512h-299.28c-10.189 0-17.435-9.966-14.25-19.67 21.373-65.302 85.288-114.345 161.53-115.31 78.69-1.004 144.534 48.96 166.25 115.31 3.18 9.689-4.04 19.67-14.25 19.67z" fill="#ff6888"/><path d="m408 512h-152v-134.98c78.156-.997 144.369 48.457 166.25 115.31 3.18 9.689-4.04 19.67-14.25 19.67z" fill="#ff515e"/><path d="m424 185c-22.551 0-43.902 6.947-60.121 19.562-35.659 27.736-36.083 74.811 0 102.876 16.219 12.615 37.57 19.562 60.121 19.562 48.523 0 88-31.851 88-71s-39.477-71-88-71z" fill="#ffba84"/><path d="m148.121 204.562c-16.219-12.615-37.57-19.562-60.121-19.562-48.523 0-88 31.851-88 71s39.477 71 88 71c22.551 0 43.902-6.947 60.121-19.562 35.66-27.736 36.083-74.811 0-102.876z" fill="#fcd0a2"/><circle cx="256" cy="256" fill="#ffe3c0" r="191"/><path d="m447 256c0 105.32-85.68 191-191 191v-382c105.32 0 191 85.68 191 191z" fill="#fcd0a2"/><path d="m197.961 238.322c-9.77-9.77-25.583-9.771-35.355 0-5.857 5.858-15.355 5.858-21.213 0s-5.858-15.355 0-21.213c21.494-21.494 56.285-21.497 77.782 0 5.857 5.858 5.857 15.355 0 21.213-5.858 5.858-15.355 5.859-21.214 0z" fill="#554fb2"/><path d="m349.961 238.322c-9.77-9.77-25.583-9.771-35.355 0-5.857 5.858-15.355 5.858-21.213 0s-5.858-15.355 0-21.213c21.494-21.494 56.285-21.497 77.782 0 5.857 5.858 5.857 15.355 0 21.213-5.858 5.858-15.355 5.859-21.214 0z" fill="#2b4478"/><path d="m306.2 338.61c-27.679 27.679-72.719 27.681-100.4 0-5.86-5.86-5.86-15.36-.01-21.22 5.86-5.85 15.36-5.85 21.22 0 15.992 15.992 41.999 15.981 57.98 0 5.86-5.85 15.36-5.85 21.22 0 5.85 5.86 5.85 15.36-.01 21.22z" fill="#ff6888"/><path d="m306.2 338.61c-13.84 13.84-32.02 20.76-50.2 20.76v-29.99c10.5 0 21-4 28.99-11.99 5.86-5.85 15.36-5.85 21.22 0 5.85 5.86 5.85 15.36-.01 21.22z" fill="#ff515e"/><path d="m342.55 96.93c-.851 8.222-8.201 14.268-16.5 13.39-32.059-3.317-59.578 19.779-62.75 50.8-.875 8.469-8.541 14.307-16.49 13.39-44.36-4.67-77.81-41.86-77.81-86.51 0-48.184 38.982-88 87-88 51.391 0 91.775 45.37 86.55 96.93z" fill="#f7be48"/><path d="m342.55 96.93c-.851 8.222-8.201 14.268-16.5 13.39-32.059-3.317-59.578 19.779-62.75 50.8-.513 4.969-3.427 9.151-7.3 11.39v-172.51c51.391 0 91.775 45.37 86.55 96.93z" fill="#f99e49"/></g></svg>