<svg id="Capa_1" enable-background="new 0 0 512 512" height="512" viewBox="0 0 512 512" width="512" xmlns="http://www.w3.org/2000/svg"><g><g><g><g><path d="m48.934 31.126c-4.142 0-7.5-3.357-7.5-7.5v-16.126c0-4.143 3.358-7.5 7.5-7.5s7.5 3.357 7.5 7.5v16.126c0 4.143-3.358 7.5-7.5 7.5z" fill="#918291"/></g><g><path d="m131.76 31.126c-4.142 0-7.5-3.357-7.5-7.5v-16.126c0-4.143 3.358-7.5 7.5-7.5s7.5 3.357 7.5 7.5v16.126c0 4.143-3.358 7.5-7.5 7.5z" fill="#918291"/></g><g><path d="m214.587 31.126c-4.142 0-7.5-3.357-7.5-7.5v-16.126c0-4.143 3.358-7.5 7.5-7.5s7.5 3.357 7.5 7.5v16.126c0 4.143-3.358 7.5-7.5 7.5z" fill="#918291"/></g><g><path d="m297.413 31.126c-4.142 0-7.5-3.357-7.5-7.5v-16.126c0-4.143 3.358-7.5 7.5-7.5s7.5 3.357 7.5 7.5v16.126c0 4.143-3.358 7.5-7.5 7.5z" fill="#918291"/></g><g><path d="m380.24 31.126c-4.142 0-7.5-3.357-7.5-7.5v-16.126c0-4.143 3.358-7.5 7.5-7.5s7.5 3.357 7.5 7.5v16.126c0 4.143-3.358 7.5-7.5 7.5z" fill="#918291"/></g><g><path d="m463.066 31.126c-4.142 0-7.5-3.357-7.5-7.5v-16.126c0-4.143 3.358-7.5 7.5-7.5s7.5 3.357 7.5 7.5v16.126c0 4.143-3.358 7.5-7.5 7.5z" fill="#918291"/></g></g></g><g><path d="m6 125.5h31.849l72.717-15 72.717 15 72.717-15 72.717 15 73.269-15 72.165 15h31.849c3.314 0 6-2.686 6-6v-89.874c0-3.314-2.686-6-6-6h-500c-3.314 0-6 2.686-6 6v89.874c0 3.314 2.686 6 6 6z" fill="#a79ba7"/><path d="m506 23.626h-30c3.314 0 6 2.686 6 6v89.874c0 3.313-2.686 6-6 6h30c3.314 0 6-2.687 6-6v-89.874c0-3.313-2.686-6-6-6z" fill="#918291"/><g><path d="m37.849 125.5c0-39.695 32.556-71.874 72.717-71.874s72.717 32.179 72.717 71.874z" fill="#f5f5f7"/><path d="m110.566 53.626c-5.143 0-10.159.535-15 1.539 32.962 6.834 57.717 35.724 57.717 70.335h30c0-39.695-32.556-71.874-72.717-71.874z" fill="#e5e1e5"/><path d="m183.283 125.5c0-39.695 32.557-71.874 72.717-71.874s72.717 32.179 72.717 71.874z" fill="#f5f5f7"/><path d="m256 53.626c-5.143 0-10.159.535-15 1.539 32.962 6.834 57.717 35.724 57.717 70.335h30c0-39.695-32.557-71.874-72.717-71.874z" fill="#e5e1e5"/><path d="m328.717 125.5c0-39.695 32.557-71.874 72.717-71.874s72.717 32.179 72.717 71.874z" fill="#f5f5f7"/><path d="m401.434 53.626c-5.143 0-10.159.535-15 1.539 32.962 6.834 57.717 35.724 57.717 70.335h30c0-39.695-32.557-71.874-72.717-71.874z" fill="#e5e1e5"/><g><path d="m349.822 381.546 14.487-267.357c.288-5.305 4.673-9.459 9.985-9.459h54.277c5.313 0 9.698 4.154 9.985 9.459l14.487 267.357 3.066 49.449-49.744 4.853-58.507-17.974z" fill="#8ac9fe"/><g><g><path d="m383.874 314.4c-.137 0-.274-.004-.412-.011-4.136-.225-7.308-3.759-7.083-7.896l2.508-46.272c.224-4.135 3.751-7.287 7.895-7.083 4.136.225 7.307 3.759 7.083 7.896l-2.507 46.272c-.218 3.998-3.528 7.094-7.484 7.094z" fill="#60b7ff"/></g><g><path d="m411.269 194.4c-4.142 0-7.5-3.357-7.5-7.5v-40.001c0-4.143 3.358-7.5 7.5-7.5s7.5 3.357 7.5 7.5v40.001c0 4.143-3.358 7.5-7.5 7.5z" fill="#60b7ff"/></g><g><path d="m413.867 404.4c-4.142 0-7.5-3.357-7.5-7.5v-40.001c0-4.143 3.358-7.5 7.5-7.5s7.5 3.357 7.5 7.5v40.001c0 4.143-3.358 7.5-7.5 7.5z" fill="#60b7ff"/></g></g></g></g></g><g><path d="m58.963 381.546 14.487-267.357c.287-5.305 4.673-9.459 9.985-9.459h54.277c5.313 0 9.698 4.154 9.985 9.459l14.487 267.357 2.87 31.285-49.548 23.016-59.433-.836z" fill="#8ac9fe"/><g><g><path d="m93.015 314.4c-.137 0-.274-.004-.412-.011-4.136-.225-7.308-3.759-7.083-7.896l2.508-46.272c.224-4.135 3.751-7.287 7.895-7.083 4.136.225 7.307 3.759 7.083 7.896l-2.507 46.272c-.218 3.998-3.528 7.094-7.484 7.094z" fill="#60b7ff"/></g><g><path d="m120.41 194.4c-4.142 0-7.5-3.357-7.5-7.5v-40.001c0-4.143 3.358-7.5 7.5-7.5s7.5 3.357 7.5 7.5v40.001c0 4.143-3.358 7.5-7.5 7.5z" fill="#60b7ff"/></g><g><path d="m123.008 404.4c-4.142 0-7.5-3.357-7.5-7.5v-40.001c0-4.143 3.358-7.5 7.5-7.5s7.5 3.357 7.5 7.5v40.001c0 4.143-3.358 7.5-7.5 7.5z" fill="#60b7ff"/></g></g></g><g><path d="m204.389 381.546 14.487-267.357c.288-5.305 4.673-9.459 9.985-9.459h54.277c5.313 0 9.698 4.154 9.985 9.459l14.487 267.357 3.561 57.446-110.032 3.963z" fill="#8ac9fe"/><g><path d="m238.439 314.4c-.137 0-.274-.004-.412-.011-4.136-.225-7.308-3.759-7.083-7.896l2.508-46.272c.224-4.135 3.759-7.287 7.895-7.083 4.136.225 7.308 3.759 7.083 7.896l-2.508 46.272c-.216 3.998-3.526 7.094-7.483 7.094z" fill="#60b7ff"/></g><g><path d="m265.835 194.4c-4.142 0-7.5-3.357-7.5-7.5v-40.001c0-4.143 3.358-7.5 7.5-7.5s7.5 3.357 7.5 7.5v40.001c0 4.143-3.357 7.5-7.5 7.5z" fill="#60b7ff"/></g><g><path d="m268.433 404.4c-4.142 0-7.5-3.357-7.5-7.5v-40.001c0-4.143 3.358-7.5 7.5-7.5s7.5 3.357 7.5 7.5v40.001c0 4.143-3.358 7.5-7.5 7.5z" fill="#60b7ff"/></g></g><g><g><path d="m7.5 412.5c41.415 0 41.415 20 82.831 20s41.416-20 82.832-20c41.415 0 41.415 20 82.831 20s41.416-20 82.833-20c41.418 0 41.418 20 82.837 20s41.419-20 82.837-20h1.5c3.314 0 6 2.686 6 6v60c0 3.314-2.686 6-6 6h-1.5c-41.418 0-41.418 20-82.837 20-41.418 0-41.418-20-82.837-20-41.417 0-41.417 20-82.833 20-41.415 0-41.415-20-82.831-20s-41.416 20-82.832 20-41.416-20-82.831-20h-1.5c-3.314 0-6-2.686-6-6v-60c0-3.314 2.686-6 6-6z" fill="#b3dafe"/></g><g><g><g><path d="m421.663 512c-22.425 0-34.249-5.709-44.68-10.746-9.855-4.759-19.164-9.254-38.157-9.254-18.992 0-28.3 4.495-38.155 9.254-10.431 5.037-22.254 10.746-44.678 10.746-22.423 0-34.246-5.709-44.676-10.746-9.854-4.759-19.163-9.254-38.154-9.254-18.992 0-28.3 4.495-38.155 9.254-10.431 5.037-22.253 10.746-44.677 10.746s-34.246-5.709-44.677-10.746c-9.854-4.759-19.162-9.254-38.154-9.254-4.142 0-7.5-3.357-7.5-7.5s3.358-7.5 7.5-7.5c22.424 0 34.246 5.709 44.677 10.746 9.854 4.759 19.162 9.254 38.154 9.254s28.3-4.495 38.154-9.254c10.431-5.037 22.253-10.746 44.678-10.746 22.424 0 34.246 5.709 44.677 10.746 9.854 4.759 19.163 9.254 38.154 9.254 18.992 0 28.3-4.495 38.155-9.254 10.43-5.037 22.253-10.746 44.677-10.746 22.425 0 34.249 5.709 44.68 10.746 9.855 4.759 19.164 9.254 38.157 9.254s28.302-4.495 38.157-9.254c10.431-5.037 22.255-10.746 44.68-10.746 4.142 0 7.5 3.357 7.5 7.5s-3.358 7.5-7.5 7.5c-18.993 0-28.302 4.495-38.157 9.254-10.431 5.037-22.255 10.746-44.68 10.746z" fill="#8ac9fe"/></g></g></g></g></g></svg>